<?xml version="1.0" encoding="UTF-8" standalone="no"?>
<!-- Created with Inkscape (http://www.inkscape.org/) -->

<svg
   xmlns:dc="http://purl.org/dc/elements/1.1/"
   xmlns:cc="http://creativecommons.org/ns#"
   xmlns:rdf="http://www.w3.org/1999/02/22-rdf-syntax-ns#"
   xmlns:svg="http://www.w3.org/2000/svg"
   xmlns="http://www.w3.org/2000/svg"
   xmlns:sodipodi="http://sodipodi.sourceforge.net/DTD/sodipodi-0.dtd"
   xmlns:inkscape="http://www.inkscape.org/namespaces/inkscape"
   width="600"
   height="600"
   id="svg2"
   sodipodi:version="0.32"
   inkscape:version="0.47pre1"
   version="1.0"
   sodipodi:docname="flocon.svg"
   inkscape:output_extension="org.inkscape.output.svg.inkscape">
  <!-- (c) Copyright 2009 Stephane Gigandet - http://scrapcoloring.com. All rights reserved. -->
  <metadata
     id="metadata2511">
    <rdf:RDF>
      <dc:publisher>ScrapColoring.com</dc:publisher>
      <dc:creator>Stephane Gigandet</dc:creator>
      <cc:Work
         rdf:about="">
        <dc:format>image/svg+xml</dc:format>
        <dc:type
           rdf:resource="http://purl.org/dc/dcmitype/StillImage" />
        <dc:title></dc:title>
      </cc:Work>
    </rdf:RDF>
  </metadata>
  <sodipodi:namedview
     id="base"
     pagecolor="#ffffff"
     bordercolor="#666666"
     borderopacity="1.0"
     inkscape:pageopacity="0.0"
     inkscape:pageshadow="2"
     inkscape:zoom="1.1561196"
     inkscape:cx="278.74512"
     inkscape:cy="303.43511"
     inkscape:document-units="px"
     inkscape:current-layer="layer1"
     showgrid="false"
     inkscape:window-width="1280"
     inkscape:window-height="974"
     inkscape:window-x="-8"
     inkscape:window-y="-8"
     showguides="true"
     inkscape:guide-bbox="true"
     inkscape:window-maximized="1" />
  <defs
     id="defs4">
    <inkscape:perspective
       id="perspective2477"
       inkscape:persp3d-origin="300 : 200 : 1"
       inkscape:vp_z="600 : 300 : 1"
       inkscape:vp_y="0 : 1000 : 0"
       inkscape:vp_x="0 : 300 : 1"
       sodipodi:type="inkscape:persp3d" />
  </defs>
  <metadata
     id="metadata7">
    <rdf:RDF>
      <cc:Work
         rdf:about="">
        <dc:format>image/svg+xml</dc:format>
        <dc:type
           rdf:resource="http://purl.org/dc/dcmitype/StillImage" />
      </cc:Work>
    </rdf:RDF>
  </metadata>
  <g
     id="layer1"
     inkscape:groupmode="layer"
     inkscape:label="Calque 1">
    <path
       style="fill:#ffffff;fill-opacity:1;fill-rule:evenodd;stroke:#000000;stroke-width:1;stroke-miterlimit:4;stroke-opacity:1;stroke-dasharray:none"
       d="M 301.53125 5.65625 L 252.03125 34.21875 L 269.90625 101 L 294.375 101 L 294.375 147.96875 L 273.625 127.25 L 256.75 110.375 L 251.75 105.34375 L 235.1875 114.90625 L 235.1875 136.15625 L 240.96875 137.71875 L 264 143.90625 L 294.375 152.03125 L 294.375 200.375 L 283.03125 189.03125 L 272.15625 178.15625 L 268.9375 174.9375 L 258.28125 181.09375 L 258.28125 194.78125 L 262 195.75 L 276.8125 199.75 L 294.375 204.4375 L 294.375 252.78125 L 276.59375 234.96875 L 275.90625 234.28125 L 277.9375 226.75 L 279.3125 221.625 L 262.96875 212.1875 L 257.15625 215.53125 L 253.53125 217.625 L 248.28125 220.65625 L 242.46875 224.03125 L 242.46875 242.90625 L 247.59375 244.28125 L 255.125 246.3125 L 255.375 247.1875 L 261.90625 271.5 L 220.0625 247.34375 L 224.75 229.8125 L 228.71875 214.96875 L 229.71875 211.25 L 217.875 204.40625 L 207.21875 210.5625 L 208.40625 214.96875 L 212.375 229.8125 L 216.53125 245.3125 L 174.65625 221.15625 L 182.8125 190.78125 L 188.96875 167.75 L 190.53125 161.96875 L 172.125 151.3125 L 155.5625 160.875 L 157.40625 167.75 L 163.5625 190.78125 L 171.15625 219.125 L 130.4375 195.625 L 142.4375 174.84375 L 92.28125 124.6875 L 45.84375 151.5 L 45.84375 208.65625 L 112.59375 226.5625 L 124.84375 205.34375 L 165.5625 228.875 L 137.1875 236.46875 L 114.15625 242.65625 L 107.3125 244.46875 L 107.3125 263.59375 L 125.71875 274.21875 L 129.9375 269.96875 L 146.8125 253.125 L 169.0625 230.875 L 210.9375 255.0625 L 195.40625 259.21875 L 180.5625 263.1875 L 176.15625 264.375 L 176.15625 276.6875 L 188 283.53125 L 190.71875 280.78125 L 201.59375 269.9375 L 214.4375 257.09375 L 256.25 281.25 L 231.96875 287.75 L 231.34375 287.9375 L 226.3125 282.90625 L 222.53125 279.15625 L 206.1875 288.59375 L 205.4375 311.84375 L 221.78125 321.28125 L 225.53125 317.53125 L 230.875 312.1875 L 232.75 312.6875 L 257.03125 319.1875 L 215.21875 343.34375 L 202.34375 330.5 L 191.5 319.65625 L 188.78125 316.9375 L 176.90625 323.75 L 176.90625 336.0625 L 181.34375 337.25 L 196.15625 341.21875 L 211.6875 345.375 L 169.8125 369.5625 L 147.59375 347.3125 L 130.71875 330.46875 L 126.46875 326.21875 L 108.0625 336.84375 L 108.0625 355.96875 L 114.9375 357.8125 L 137.96875 363.96875 L 166.3125 371.5625 L 125.625 395.0625 L 113.625 374.3125 L 45.0625 392.65625 L 45.09375 446.3125 L 94.59375 474.875 L 143.46875 426 L 131.21875 404.8125 L 171.9375 381.3125 L 164.34375 409.65625 L 158.1875 432.6875 L 156.3125 439.5625 L 172.875 449.125 L 191.28125 438.46875 L 189.75 432.6875 L 183.5625 409.65625 L 175.4375 379.28125 L 217.3125 355.09375 L 213.15625 370.625 L 209.1875 385.46875 L 208 389.875 L 218.65625 396.03125 L 230.5 389.1875 L 229.5 385.46875 L 225.53125 370.625 L 220.84375 353.09375 L 262.65625 328.9375 L 256.15625 353.25 L 256.09375 353.4375 L 247.59375 355.71875 L 242.46875 357.09375 L 242.46875 375.96875 L 257.15625 384.46875 L 263.75 388.28125 L 280.09375 378.8125 L 278.71875 373.6875 L 276.4375 365.1875 L 276.59375 365.03125 L 294.375 347.21875 L 294.375 395.5625 L 276.8125 400.25 L 262 404.25 L 258.28125 405.21875 L 258.28125 418.90625 L 268.9375 425.0625 L 272.15625 421.84375 L 283.03125 410.96875 L 294.375 399.625 L 294.375 447.96875 L 264 456.09375 L 240.96875 462.28125 L 235.1875 463.84375 L 235.1875 485.09375 L 251.75 494.65625 L 256.75 489.625 L 273.625 472.75 L 294.375 452.03125 L 294.375 499 L 269.90625 499 L 252.03125 565.78125 L 301.53125 594.34375 L 347.96875 567.5625 L 329.59375 499 L 305.625 499 L 305.625 452.03125 L 326.375 472.75 L 343.25 489.625 L 348.25 494.65625 L 364.8125 485.09375 L 364.8125 463.84375 L 359.03125 462.28125 L 336 456.09375 L 305.625 447.96875 L 305.625 399.625 L 316.96875 410.96875 L 327.84375 421.84375 L 331.0625 425.0625 L 341.71875 418.90625 L 341.71875 405.21875 L 338 404.25 L 323.1875 400.25 L 305.625 395.5625 L 305.625 347.21875 L 323.40625 365.03125 L 324.09375 365.71875 L 322.0625 373.25 L 320.6875 378.375 L 337.03125 387.8125 L 346.46875 382.375 L 357.53125 375.96875 L 357.53125 357.09375 L 352.40625 355.71875 L 344.875 353.6875 L 344.625 352.8125 L 338.09375 328.5 L 379.9375 352.65625 L 375.25 370.1875 L 371.28125 385.03125 L 370.28125 388.75 L 382.125 395.59375 L 392.78125 389.4375 L 391.59375 385.03125 L 387.625 370.1875 L 383.46875 354.6875 L 425.34375 378.84375 L 417.1875 409.21875 L 411.03125 432.25 L 409.46875 438.03125 L 427.875 448.6875 L 444.4375 439.125 L 442.59375 432.25 L 436.4375 409.21875 L 428.84375 380.875 L 469.53125 404.375 L 457.3125 425.5625 L 506.1875 474.4375 L 555.6875 445.875 L 555.6875 392.21875 L 487.15625 373.875 L 475.15625 394.65625 L 434.4375 371.125 L 462.8125 363.53125 L 485.84375 357.34375 L 492.6875 355.53125 L 492.6875 336.40625 L 474.28125 325.78125 L 470.0625 330.03125 L 453.1875 346.875 L 430.9375 369.125 L 389.0625 344.9375 L 404.59375 340.78125 L 419.4375 336.8125 L 423.84375 335.625 L 423.84375 323.3125 L 412 316.46875 L 409.28125 319.21875 L 398.40625 330.0625 L 385.5625 342.90625 L 343.75 318.75 L 368.03125 312.25 L 369.1875 311.9375 L 375.21875 317.96875 L 379 321.71875 L 395.34375 312.28125 L 394.5625 288.15625 L 378.21875 278.71875 L 374.46875 282.46875 L 368.71875 288.21875 L 344.5 281.6875 L 386.3125 257.53125 L 399.1875 270.375 L 410.03125 281.21875 L 412.75 283.96875 L 424.625 277.125 L 424.625 264.8125 L 420.1875 263.625 L 405.375 259.65625 L 389.84375 255.5 L 431.71875 231.3125 L 453.9375 253.5625 L 470.8125 270.40625 L 475.0625 274.65625 L 493.46875 264.03125 L 493.46875 244.90625 L 486.59375 243.09375 L 463.5625 236.90625 L 435.21875 229.3125 L 475.90625 205.8125 L 488.15625 227 L 554.9375 209.09375 L 554.9375 151.9375 L 508.46875 125.125 L 458.3125 175.3125 L 470.3125 196.0625 L 429.59375 219.5625 L 437.1875 191.21875 L 443.34375 168.1875 L 445.21875 161.3125 L 428.65625 151.78125 L 410.25 162.40625 L 411.8125 168.1875 L 417.96875 191.21875 L 426.09375 221.59375 L 384.21875 245.75 L 388.375 230.25 L 392.34375 215.40625 L 393.53125 211 L 382.875 204.84375 L 371.03125 211.6875 L 372.03125 215.40625 L 376 230.25 L 380.6875 247.78125 L 338.875 271.9375 L 345.375 247.65625 L 345.8125 246.0625 L 352.40625 244.28125 L 357.53125 242.90625 L 357.53125 224.03125 L 352.5 221.125 L 352.5 221.09375 L 337.78125 212.625 L 321.4375 222.0625 L 322.8125 227.1875 L 324.59375 233.8125 L 323.40625 234.96875 L 305.625 252.78125 L 305.625 204.4375 L 323.1875 199.75 L 338 195.75 L 341.71875 194.78125 L 341.71875 181.09375 L 331.0625 174.9375 L 327.84375 178.15625 L 316.96875 189.03125 L 305.625 200.375 L 305.625 152.03125 L 336 143.90625 L 359.03125 137.71875 L 364.8125 136.15625 L 364.8125 114.90625 L 348.25 105.34375 L 343.25 110.375 L 326.375 127.25 L 305.625 147.96875 L 305.625 101 L 329.59375 101 L 347.96875 32.4375 L 301.53125 5.65625 z M 329.0625 250.53125 L 335.34375 273.96875 L 324.03125 280.5 L 314.5 274.90625 L 305.625 269.90625 L 305.625 256.8125 L 329.0625 250.53125 z M 271.53125 250.6875 L 294.375 256.8125 L 294.375 269.90625 L 285.5 274.90625 L 276.71875 280.0625 L 265.40625 273.53125 L 271.53125 250.6875 z M 259.78125 283.28125 L 271.09375 289.8125 L 271.03125 300 L 271.125 311.0625 L 260.53125 317.15625 L 243.21875 299.84375 L 259.78125 283.28125 z M 341 283.71875 L 357.09375 299.84375 L 340.21875 316.71875 L 328.90625 310.1875 L 328.96875 300 L 328.90625 290.6875 L 341 283.71875 z M 323.28125 319.9375 L 334.59375 326.46875 L 328.46875 349.3125 L 305.625 343.1875 L 305.625 330.09375 L 314.5 325.09375 L 323.28125 319.9375 z M 277.5 320.375 L 285.5 325.09375 L 294.375 330.09375 L 294.375 343.1875 L 272.15625 349.15625 L 266.1875 326.90625 L 277.5 320.375 z "
       id="rect4600" />
  </g>
</svg>
